<svg id="Layer_1" data-name="Layer 1" xmlns="http://www.w3.org/2000/svg" xmlns:xlink="http://www.w3.org/1999/xlink" viewBox="0 0 510 188">
	<defs>
		<style>.cls-1{fill:url(#Безымянный_градиент_28);}.cls-2,.cls-8{fill:#413a99;}.cls-3{fill:url(#Безымянный_градиент_28-2);}.cls-4{fill:url(#Безымянный_градиент_6);}.cls-5{fill:url(#Безымянный_градиент_206);}.cls-6{fill:url(#Безымянный_градиент_6-2);}.cls-7{fill:url(#Безымянный_градиент_6-3);}.cls-8{font-size:66.53px;font-family:Ubuntu-Bold, Ubuntu;font-weight:700;letter-spacing:0.01em;}.cls-9{letter-spacing:-0.02em;}</style>
		<radialGradient id="Безымянный_градиент_28" cx="85.33" cy="94.38" r="28.93" gradientUnits="userSpaceOnUse">
			<stop offset="0" stop-color="#00ffce"/>
			<stop offset="1" stop-color="#413a99"/>
		</radialGradient>
		<radialGradient id="Безымянный_градиент_28-2" cx="33.65" cy="98.06" r="140.11" xlink:href="#Безымянный_градиент_28"/>
		<linearGradient id="Безымянный_градиент_6" x1="157.43" y1="128.67" x2="-1.21" y2="128.67" xlink:href="#Безымянный_градиент_28"/>
		<linearGradient id="Безымянный_градиент_206" x1="9.36" y1="64.89" x2="169.2" y2="64.89" gradientUnits="userSpaceOnUse">
			<stop offset="0" stop-color="#00ffce"/>
			<stop offset="0.14" stop-color="#07e9c8"/>
			<stop offset="0.44" stop-color="#1ab1b9"/>
			<stop offset="0.87" stop-color="#3757a1"/>
			<stop offset="1" stop-color="#413a99"/>
		</linearGradient>
		<linearGradient id="Безымянный_градиент_6-2" x1="157.43" y1="158.01" x2="-1.21" y2="158.01" xlink:href="#Безымянный_градиент_28"/>
		<linearGradient id="Безымянный_градиент_6-3" x1="9.41" y1="35.54" x2="169.25" y2="35.54" xlink:href="#Безымянный_градиент_28"/>
	</defs>
	<title>SenticodeLogo</title>
	<path class="cls-1" d="M107.51,93.62a7,7,0,0,1-6.29-3.91l-8.52,3.1a3.84,3.84,0,0,1,.07.69,3.63,3.63,0,1,1-.47-1.79l8.49-3.09a7.1,7.1,0,0,1-.3-2,7,7,0,0,1,3.09-5.82,25.67,25.67,0,1,0,5.36,12.69A6.74,6.74,0,0,1,107.51,93.62Z"/>
	<path class="cls-2" d="M117,118.32a39.87,39.87,0,1,1,0-43,38.33,38.33,0,0,1,8.9-9.16,52.38,52.38,0,1,0,0,61.38A38.52,38.52,0,0,1,117,118.32Z"/>
	<path class="cls-2" d="M18.09,58.77a75.58,75.58,0,0,1,130.64,0,37.93,37.93,0,0,1,15.79,3.61,88.12,88.12,0,0,0-162.22,0A37.86,37.86,0,0,1,18.09,58.77Z"/>
	<path class="cls-2" d="M83.41,172.34a75.52,75.52,0,0,1-65.32-37.55A37.71,37.71,0,0,1,2.3,131.17a88.11,88.11,0,0,0,162.22,0,37.78,37.78,0,0,1-15.79,3.62A75.53,75.53,0,0,1,83.41,172.34Z"/>
	<path class="cls-3" d="M90,144.06a47.29,47.29,0,1,1,35.32-78.72,52.39,52.39,0,1,0,0,62.87A47.14,47.14,0,0,1,90,144.06Z"/>
	<path class="cls-4" d="M137.94,116.41a58,58,0,0,1-5.49,11.25l27.19,13.26a87.26,87.26,0,0,0,5.5-11.24Z"/>
	<path class="cls-5" d="M34.37,65.9,7.17,52.63A88.66,88.66,0,0,0,1.68,63.88L28.87,77.14A57.42,57.42,0,0,1,34.37,65.9Z"/>
	<path class="cls-6" d="M148.73,134.79a77.25,77.25,0,0,1-6.25,9.11A82.42,82.42,0,0,1,2.39,131.21l-.09,0a88.11,88.11,0,0,0,162.22,0A37.78,37.78,0,0,1,148.73,134.79Z"/>
	<path class="cls-7" d="M18.09,58.77a75,75,0,0,1,6.25-9.12A82.42,82.42,0,0,1,164.42,62.34l.1,0a88.12,88.12,0,0,0-162.22,0A37.86,37.86,0,0,1,18.09,58.77Z"/>
	<text class="cls-8" transform="translate(186.53 116.36)">Senticode</text>
</svg>