<svg xmlns="http://www.w3.org/2000/svg" viewBox="0 0 399.91 472.61"><defs><style>.cls-1{fill:#fff;}</style></defs><title>Ресурс 1</title><g id="Слой_2" data-name="Слой 2"><g id="Capa_1" data-name="Capa 1"><path class="cls-1" d="M29.26,153.09a28.24,28.24,0,0,0-20.74,8.52A27.89,27.89,0,0,0,0,182.06V304.19a28.22,28.22,0,0,0,8.52,20.73,28.22,28.22,0,0,0,20.73,8.52,27.73,27.73,0,0,0,20.59-8.52,28.45,28.45,0,0,0,8.39-20.73V182.06a27.92,27.92,0,0,0-8.52-20.45A27.89,27.89,0,0,0,29.26,153.09Z"/><path class="cls-1" d="M69.59,347.65a31,31,0,0,0,31.25,31.23h21l.29,64.48a28.22,28.22,0,0,0,8.52,20.73,27.89,27.89,0,0,0,20.45,8.52,29.09,29.09,0,0,0,29.25-29.25V378.88h39.2v64.48a29.25,29.25,0,1,0,58.5,0V378.88h21.3a29.81,29.81,0,0,0,21.87-9.08,30.14,30.14,0,0,0,9.09-22.15V158.48H69.59Z"/><path class="cls-1" d="M264.43,43.46,284.59,6.25c1.33-2.46.85-4.36-1.42-5.68-2.46-1.14-4.36-.57-5.68,1.7L257,39.76a142.56,142.56,0,0,0-114.18,0L122.41,2.27q-2-3.4-5.67-1.7c-2.28,1.32-2.75,3.22-1.42,5.68l20.16,37.21A124.36,124.36,0,0,0,86.63,87.05a110.12,110.12,0,0,0-18.18,61.21H331.18A110.1,110.1,0,0,0,313,87.05,124.81,124.81,0,0,0,264.43,43.46Zm-116.6,54.1a10.62,10.62,0,0,1-7.8,3.27,10.19,10.19,0,0,1-7.67-3.27,11.31,11.31,0,0,1,0-15.62A10.19,10.19,0,0,1,140,78.67a11,11,0,0,1,7.8,18.89Zm119.73,0a10.23,10.23,0,0,1-7.68,3.27,11,11,0,0,1-7.8-18.89,10.62,10.62,0,0,1,7.8-3.27,10.23,10.23,0,0,1,7.68,3.27,11.34,11.34,0,0,1,0,15.62Z"/><path class="cls-1" d="M391.39,161.47a28.45,28.45,0,0,0-20.74-8.38,28.09,28.09,0,0,0-20.44,8.38,27.75,27.75,0,0,0-8.52,20.59V304.19a28.22,28.22,0,0,0,8.52,20.73,27.87,27.87,0,0,0,20.44,8.52,29.09,29.09,0,0,0,29.26-29.25V182.06A27.75,27.75,0,0,0,391.39,161.47Z"/></g></g></svg>