<svg xmlns="http://www.w3.org/2000/svg" viewBox="0 0 405.75 475.08"><defs><style>.cls-1{fill:#fff;}</style></defs><title>Ресурс 3</title><g id="Слой_2" data-name="Слой 2"><g id="Capa_1" data-name="Capa 1"><g id="_Группа_" data-name="&lt;Группа&gt;"><path id="_Составной_контур_" data-name="&lt;Составной контур&gt;" class="cls-1" d="M393.16,381.45c-13.94-5.7-19.9-13.28-19.32-24.57.59-13.19-6.89-22.85-10.44-26.67,2.15-8.2,8.42-36.56,0-61.2-9-26.37-36.65-66.65-65.13-106.24-11.66-16.26-12.21-33.93-12.84-54.39-.61-19.52-1.3-41.65-12.19-66.24C261.42,15.36,237.67,0,208.09,0c-17.59,0-35.65,5.5-49.55,15.08-28.46,19.64-24.69,62.47-22.2,90.8.34,3.88.66,7.55.84,10.68,1.66,27.75.15,42.37-1.82,46.82-1.27,2.9-7.55,11.17-14.2,19.93-6.87,9.05-14.67,19.31-21.06,28.87-7.62,11.51-13.77,29.1-19.72,46.11-4.35,12.44-8.47,24.2-12.47,31.22a42.48,42.48,0,0,0-4.12,31.94c-2.87,2-7,5.93-10.53,13.33-4.23,9-12.82,13.89-30.68,17.33-8.21,1.67-13.87,5.13-16.83,10.25-4.31,7.47-2,16.84.18,23.25C9.09,395,7.12,401,3.53,411.82c-.82,2.5-1.76,5.33-2.71,8.45-1.49,4.92-.95,9.4,1.6,13.3,6.75,10.32,26.43,13.95,46.7,16.35,12.1,1.43,25.34,6.27,38.15,10.95,12.55,4.59,25.53,9.33,37.32,10.77a41.74,41.74,0,0,0,5.28.34c17.81,0,25.86-11.82,28.41-16.67a315,315,0,0,1,51.2-6.05c22.71-.65,44.68,3.84,50.9,5.23,2,3.75,7.11,12.3,15.33,16.71,4.52,2.47,10.81,3.88,17.25,3.88h0c6.88,0,20-1.62,30.33-12.52s36.14-24.92,55-35.13c4.21-2.27,8.14-4.4,11.59-6.33,10.59-5.87,16.37-14.25,15.85-23C405.28,390.82,400.47,384.45,393.16,381.45Zm-234.38-2.11c-1.32-9.28-13.27-18.49-27.1-29.15-11.3-8.72-24.12-18.6-27.65-27-7.3-17.27-1.55-47.62,8.48-63.25,5-7.82,9-19.69,12.92-31.17,4.23-12.39,8.6-25.2,13.49-30.81,7.74-8.76,14.9-25.8,16.17-39.23,7.25,6.92,18.5,15.71,28.89,15.71a17,17,0,0,0,4.64-.63c7.1-2,17.56-8.1,27.67-13.94,8.72-5,19.47-11.25,23.52-11.81,6.93,10,47.24,99.15,51.36,127.8a135.34,135.34,0,0,1-1.92,48.73,35.84,35.84,0,0,0-4.8-.34c-11.22,0-14.19,6.13-15,9.79-2,9.5-2.2,39.9-2.22,46.73-4.06,5.16-24.59,29.44-54.06,33.81a234.85,234.85,0,0,1-33.32,2.63,113.8,113.8,0,0,1-16.43-1l-14.81-16.95C154.48,396.41,160.31,390.32,158.78,379.34ZM177.57,99.92c-.46.2-.92.41-1.37.64a26.54,26.54,0,0,0-.31-3c-1.61-9.31-7.78-16.06-14.67-16.06a11,11,0,0,0-1.58.12c-4.1.69-7.31,3.76-9.07,8.12,1.54-9.57,7-16.65,13.4-16.65,7.55,0,13.94,10.18,13.94,22.23A32.41,32.41,0,0,1,177.57,99.92Zm58.7,7.18a23.65,23.65,0,0,0,1.07-7.06c0-10.93-6.94-19.49-15.78-19.49-8.65,0-15.69,8.74-15.69,19.49,0,.73,0,1.46.11,2.2l-1.35-.52a29.86,29.86,0,0,1-1.49-9.36c0-13.07,8.34-23.7,18.61-23.7s18.61,10.63,18.61,23.7A27.92,27.92,0,0,1,236.27,107.1Zm-7.57,25.43c-.15.66-.46.95-3.94,2.76-1.76.91-3.94,2.05-6.68,3.72l-1.83,1.11c-7.35,4.45-24.56,14.89-29.23,15.5-3.17.42-5.13-.81-9.55-3.8-1-.68-2.05-1.4-3.18-2.13-8-5.22-13.07-11-13.65-13.21,2.59-2,9-7,12.31-10,6.68-6.21,13.41-10.38,16.73-10.38a2.67,2.67,0,0,1,.5,0c3.91.69,13.56,4.54,20.6,7.35,3.26,1.3,6.07,2.42,8.05,3.13C225.06,128.76,228.31,131.5,228.7,132.53Zm56,290.3c3.52-15.86,7.57-37.44,6.91-50.15-.15-2.89-.4-6-.65-9.08-.46-5.68-1.15-14.14-.44-16.64a2.87,2.87,0,0,1,.47-.17c0,7.27,1.61,21.77,13.21,26.83a29.13,29.13,0,0,0,11.74,2.27c11.61,0,24.51-5.7,29.79-11a54.56,54.56,0,0,0,7.55-9.92,11.94,11.94,0,0,1,.52,4.68c-.69,10.72,4.52,24.95,14.44,30.19l1.44.76c3.54,1.85,12.92,6.78,13.07,9.12a2.13,2.13,0,0,1-.6.76c-2.35,2.15-10.62,6.37-18.62,10.46C349.32,418.2,333.24,426.42,326,434c-10.17,10.7-21.67,17.89-28.62,17.89a7.71,7.71,0,0,1-2.28-.32C287.57,449.24,281.36,438.35,284.69,422.83ZM27.51,382.37c-.77-3.6-1.38-6.45-.73-9.2.48-2,10.55-4.23,14.85-5.16,6-1.31,12.31-2.67,16.4-5.15,5.53-3.35,8.52-9.53,11.17-15,1.91-3.95,3.88-8,6.23-9.36a1.35,1.35,0,0,1,.73-.17c4.4,0,13.64,9.26,19,17.54C96.47,358,99,362.17,101.87,367c8.66,14.49,20.51,34.32,26.7,41,5.58,6,14.61,17.47,12.38,27.32-1.62,7.65-10.28,13.87-12.32,15.24a12.48,12.48,0,0,1-2.74.26c-11.85,0-35.3-9.86-47.9-15.15l-1.86-.79c-7-2.95-18.53-4.81-29.63-6.6-8.84-1.44-20.94-3.39-22.95-5.16-1.63-1.83.26-7.76,1.92-13a82.92,82.92,0,0,0,3.11-11.72C29.55,391.9,28.42,386.61,27.51,382.37Z"/></g></g></g></svg>