<svg xmlns="http://www.w3.org/2000/svg" viewBox="0 0 388.24 475.08"><defs><style>.cls-1{fill:#fff;}</style></defs><title>Ресурс 2</title><g id="Слой_2" data-name="Слой 2"><g id="Capa_1" data-name="Capa 1"><g id="_Группа_" data-name="&lt;Группа&gt;"><path id="_Контур_" data-name="&lt;Контур&gt;" class="cls-1" d="M20,174.64c-40.17,69.7-14.64,175.47,29.78,239.6C72,446.3,94.44,475.08,125.18,475.08l1.75,0c14.45-.58,24.89-5,35-9.32,11.33-4.83,23.05-9.82,41.43-9.82,17.48,0,28.64,4.83,39.43,9.5,10.64,4.6,21.59,9.36,37.78,9,34.63-.64,55.89-31.7,74.65-59.1a261.67,261.67,0,0,0,32.71-67L388,348a3.9,3.9,0,0,0-2.07-4.78l-.28-.12c-6.1-2.49-59.59-26.22-60.15-90.9-.53-52.55,40.13-80.38,48.28-85.42l.38-.24a3.88,3.88,0,0,0,1.1-5.47c-28.06-41.06-71.06-47.25-88.38-48-2.51-.25-5.1-.38-7.71-.38-20.33,0-39.82,7.68-55.47,13.85-10.8,4.26-20.13,7.94-26.57,7.94-7.23,0-16.62-3.72-27.48-8-14.54-5.76-31-12.3-48.45-12.3H120C79.47,114.71,41.16,137.91,20,174.64Z"/><path id="_Контур_2" data-name="&lt;Контур&gt;" class="cls-1" d="M287,0c-24.55,1-54,16.12-71.61,36.74-15,17.33-29.58,46.23-25.73,75.35a3.91,3.91,0,0,0,3.56,3.38c1.66.12,3.35.19,5,.19,24,0,49.91-13.28,67.6-34.67,18.61-22.58,28-51.56,25.18-77.52A3.92,3.92,0,0,0,287,0Z"/></g></g></g></svg>